<?xml version="1.0" encoding="UTF-8" standalone="no"?>
<!-- Created with Inkscape (http://www.inkscape.org/) -->

<svg
   xmlns:dc="http://purl.org/dc/elements/1.1/"
   xmlns:cc="http://creativecommons.org/ns#"
   xmlns:rdf="http://www.w3.org/1999/02/22-rdf-syntax-ns#"
   xmlns:svg="http://www.w3.org/2000/svg"
   xmlns="http://www.w3.org/2000/svg"
   xmlns:sodipodi="http://sodipodi.sourceforge.net/DTD/sodipodi-0.dtd"
   xmlns:inkscape="http://www.inkscape.org/namespaces/inkscape"
   version="1.1"
   id="svg4518"
   width="760"
   height="604"
   viewBox="0 0 760 604"
   sodipodi:docname="IMG_7137inkscapeoutline.svg"
   inkscape:version="0.92.4 (5da689c313, 2019-01-14)">
  <metadata
     id="metadata4524">
    <rdf:RDF>
      <cc:Work
         rdf:about="">
        <dc:format>image/svg+xml</dc:format>
        <dc:type
           rdf:resource="http://purl.org/dc/dcmitype/StillImage" />
        <dc:title></dc:title>
      </cc:Work>
    </rdf:RDF>
  </metadata>
  <defs
     id="defs4522" />
  <sodipodi:namedview
     pagecolor="#ffffff"
     bordercolor="#666666"
     borderopacity="1"
     objecttolerance="10"
     gridtolerance="10"
     guidetolerance="10"
     inkscape:pageopacity="0"
     inkscape:pageshadow="2"
     inkscape:window-width="1680"
     inkscape:window-height="997"
     id="namedview4520"
     showgrid="false"
     inkscape:zoom="0.88741722"
     inkscape:cx="196.88433"
     inkscape:cy="302"
     inkscape:window-x="1272"
     inkscape:window-y="-8"
     inkscape:window-maximized="1"
     inkscape:current-layer="svg4518" />
  <path
     style="fill:none;stroke-width:1.33333337;stroke:#000000;stroke-opacity:1"
     d="m 451.53291,510.223 c -4.19214,-14.44294 -7.80021,-32.23067 -14.21569,-70.08316 -11.98603,-70.7198 -17.1968,-89.29592 -29.73495,-106.00358 -1.67137,-2.22717 0.17739,-8.67357 2.4875,-8.67357 1.04885,0 3.62902,1.84256 5.73372,4.09457 2.62653,2.81039 5.5139,4.32087 9.20632,4.81612 6.66016,0.89332 7.05812,-0.1503 7.08393,-18.57736 l 0.0182,-13 h 5.42099 c 7.34441,0 9.87334,-1.62669 12.41868,-7.98808 1.18818,-2.96957 2.16033,-5.68708 2.16033,-6.0389 0,-1.75216 -5.21867,-0.3097 -7.33333,2.02698 -2.8454,3.14414 -4.90424,3.50387 -3.81551,0.66667 1.03871,-2.70683 0.13819,-2.54627 -7.53951,1.34432 -7.0504,3.57271 -7.44245,4.33787 -8.37828,16.35167 -0.66874,8.58498 -1.75489,9.88508 -4.95786,5.93445 -2.41779,-2.98216 -2.392,-3.16856 1.4481,-10.46872 2.15035,-4.08788 3.90972,-9.10739 3.90972,-11.15447 0,-2.12857 0.88298,-4.06078 2.06255,-4.51342 1.1344,-0.43531 1.8844,-1.83604 1.66667,-3.11272 -0.2288,-1.34158 0.44821,-2.3339 1.60412,-2.35119 1.1,-0.0164 2.17456,-1.24892 2.38792,-2.73881 0.53725,-3.75172 -6.84495,-9.13347 -11.07288,-8.07232 -2.86083,0.71801 -3.1195,1.44056 -2.90624,8.11802 0.1558,4.87874 0.79538,7.32986 1.91264,7.32986 2.15712,0 2.29228,11.46332 0.15077,12.78685 -1.07521,0.66451 -1.26517,-0.10213 -0.64127,-2.58799 0.54308,-2.16381 0.33667,-3.5322 -0.53281,-3.5322 -0.78064,0 -2.88047,-1.46112 -4.66628,-3.24693 -1.78581,-1.78581 -5.16305,-3.43581 -7.50499,-3.66667 -3.28054,-0.32337 -5.25573,-1.79713 -8.60394,-6.41973 -4.94884,-6.83245 -5.32075,-8 -2.54832,-8 2.46056,0 3.116,-2.94059 3.95241,-17.73231 0.36488,-6.45277 1.01929,-12.30814 1.45427,-13.01193 1.471,-2.38013 -0.88251,-6.60744 -4.80911,-8.63796 -2.20313,-1.13928 -3.90551,-3.10491 -3.90551,-4.50944 0,-1.62981 -1.72704,-3.18619 -5,-4.50592 l -5,-2.01609 -3.03122,4.87349 c -1.66719,2.68043 -2.77336,5.92349 -2.45816,7.20683 0.42708,1.73893 -0.25168,2.33333 -2.66452,2.33333 -5.42527,0 -12.7715,13.0154 -17.07675,30.25511 -3.83569,15.35944 -6.21415,20.41156 -9.6094,20.41156 -1.30899,0 -1.82636,0.74414 -1.36083,1.95729 0.4131,1.07652 0.14028,2.3348 -0.60626,2.79619 -0.74654,0.46138 -1.93452,2.357 -2.63998,4.21246 -1.00018,2.63071 -0.67654,4.4008 1.46976,8.03852 1.51382,2.56572 2.578,4.80806 2.36488,4.98298 -0.21313,0.1749 -1.73752,1.0204 -3.38752,1.87886 -4.78044,2.48719 -3.88689,7.70291 2.33334,13.62007 3.34354,3.18064 5.33333,6.27237 5.33333,8.28693 0,2.65328 1.00885,3.49592 5.78717,4.83378 5.00448,1.40116 6.94303,1.26329 14.33334,-1.01939 4.70038,-1.45183 8.71145,-2.48769 8.91349,-2.30192 0.20203,0.18577 -1.82099,4.17247 -4.49559,8.85933 -14.23713,24.94852 -27.98865,55.1037 -45.23238,99.18823 -11.59748,29.6496 -19.70554,40.26125 -37.1308,48.59601 -5.96304,2.85222 -15.38646,6.4367 -20.94092,7.96551 -11.9473,3.28837 -46.06712,8.63779 -68.56764,10.75024 -40.24068,3.778 -54.70666,4.96275 -55.21022,4.52169 -0.901,-0.78918 21.71972,-11.00092 36.58311,-16.5148 21.08739,-7.8228 21.13897,-8.14809 1.13548,-7.15949 -17.3714,0.85853 -17.53867,0.83888 -24.33333,-2.85925 -3.76294,-2.04804 -6.84171,-4.12584 -6.84171,-4.61732 0,-0.49148 3.9512,-0.36422 8.78045,0.28281 12.52382,1.67796 21.33619,-0.47468 32.29676,-7.88925 13.83274,-9.35755 13.69024,-8.68702 2.90276,-13.6593 -5.21086,-2.40184 -9.23518,-4.60608 -8.94294,-4.89833 0.29225,-0.29224 3.47846,0.012 7.08049,0.67469 3.60203,0.66331 10.94901,1.63211 16.32663,2.15286 9.4238,0.91258 9.97844,0.80282 15.33333,-3.03426 3.05572,-2.1896 8.55585,-4.82536 12.22252,-5.85725 l 6.66667,-1.87616 0.35522,-39.95587 c 0.38972,-43.83593 0.53763,-42.80285 -8.06568,-56.33318 -5.38196,-8.46415 -8.89718,-19.63702 -8.93538,-28.40046 -0.012,-2.62778 -0.41822,-5.17516 -0.90391,-5.66085 -0.48569,-0.48569 -3.03569,2.26431 -5.66667,6.11111 l -4.78358,6.99418 -0.40479,-20 c -0.70843,-35.00186 2.69977,-58.13952 15.18683,-103.10044 3.32497,-11.9719 6.34832,-22.55649 6.71856,-23.52132 0.37024,-0.96481 -1.16594,-3.84882 -3.41372,-6.40892 -2.24779,-2.56008 -4.08688,-5.78648 -4.08688,-7.16978 0,-1.3833 2.394,-5.41216 5.32,-8.95302 7.3791,-8.92974 9.34666,-16.59852 9.34666,-36.42964 v -16.43246 l -11.98924,8.67446 c -11.76428,8.51171 -14.96841,10.32799 -12.3625,7.00779 0.71946,-0.91667 4.37554,-6.90565 8.12464,-13.30885 l 6.81653,-11.64219 -8.29472,0.80132 -8.29471,0.80132 14.66667,-10.363572 c 8.06667,-5.69997 16.89655,-11.96985 19.62195,-13.933081 l 4.95528,-3.56951 -9.62195,-5.55383 c -5.29207,-3.054605 -8.72195,-5.617963 -7.62195,-5.696349 10.45791,-0.745226 36.81623,0.66192 43.25336,2.309094 12.98804,3.323455 24.74664,10.327785 24.74664,14.740996 0,2.48485 -7.42614,6.74997 -13.5557,7.78555 l -5.11248,0.86375 6.00076,6.85978 c 6.19294,7.079472 7.1892,10.562232 4.16174,14.548922 -1.62162,2.13542 -1.87056,2.05461 -3.2939,-1.06928 -1.45814,-3.20026 -8.54084,-7.24074 -12.69256,-7.24074 -1.05111,0 -3.15015,2.1 -4.66452,4.66667 -3.38222,5.73243 -6.92003,6.02403 -16.17667,1.33333 -3.61791,-1.83333 -7.19796,-3.33333 -7.95568,-3.33333 -0.91512,0 -1.37765,12.50936 -1.37765,37.25899 0,36.75478 0.0407,37.30442 3,40.61797 4.63668,5.19152 16.02046,8.93117 29.66666,9.74569 14.85423,0.88662 23.45763,-1.13176 44.66667,-10.47889 19.56328,-8.62183 31.11371,-12.76623 41.62553,-14.93563 8.08942,-1.66948 8.36478,-1.86128 8.08966,-5.63488 -0.60554,-8.30581 -1.6308,-9.54656 -14.66183,-17.74332 -7.13779,-4.4898 -12.6948,-8.16409 -12.34891,-8.16509 0.34588,-0.001 5.72888,-0.90017 11.96222,-1.99817 6.23333,-1.098 11.46201,-1.99718 11.61928,-1.99818 0.15728,-0.001 -0.8359,-2.61898 -2.20704,-5.81773 -1.37115,-3.19875 -4.70763,-12.64875 -7.41442,-21 -4.84041,-14.934142 -5.56321,-20.523052 -4.63649,-35.850763 0.33577,-5.553499 -0.26103,-8.695768 -2.45897,-12.946883 -4.48268,-8.670096 -3.75327,-9.080232 5.38452,-3.027618 7.04925,4.669232 9.18528,8.882793 8.85998,17.477361 -0.3771,9.963721 6.99866,19.911211 15.04515,20.290991 3.55645,0.16786 4.70487,-0.48367 6.18332,-3.508 2.47067,-5.05395 0.98005,-10.837721 -4.32176,-16.769041 -8.31145,-9.298295 -9.23043,-14.077113 -4.46844,-23.236594 l 2.91848,-5.613549 1.04153,5.839662 c 1.26015,7.065427 2.31326,8.730598 14.38542,22.746391 5.20888,6.0475 10.45502,13.189621 11.6581,15.871371 3.28591,7.32448 2.98778,25.214322 -0.61348,36.813202 -1.5831,5.09886 -2.59217,9.55683 -2.24238,9.90663 0.3498,0.34979 5.8431,0.90928 12.20734,1.24332 l 11.57136,0.60735 -3.25576,2.63109 c -1.79065,1.44711 -7.30574,6.23675 -12.25574,10.64364 -8.07804,7.19175 -9,8.52329 -9,12.99835 v 4.98578 l 7.83572,0.81899 c 11.8005,1.2334 23.50012,6.05696 46.09428,19.00392 11.25393,6.44876 21.45102,12.44844 22.6602,13.3326 2.04136,1.49268 2.043,3.83348 0.0231,32.74931 -2.97056,42.52388 -4.0684,118.25762 -2.04692,141.2048 4.47948,50.84941 18.36172,79.2646 48.05728,98.36722 7.9817,5.13447 29.65415,15.58599 35.2119,16.9809 3.95153,0.99177 4.70861,2.80586 1.16449,2.7903 -17.14884,-0.0753 -23.24261,0.56627 -21.80719,2.29586 2.22268,2.67817 15.16746,5.8845 28.09535,6.95902 12.57321,1.04504 12.05345,1.61828 -4.88761,5.3905 -8.80104,1.95969 -17.99398,2.32897 -59.7755,2.40116 l -49.37494,0.0853 -8.26679,4.09364 -8.26679,4.09365 -1.96222,-6.76032 z M 268.38426,435.15293 c 7.9436,-14.99228 23.75076,-54.3124 20.50007,-50.99367 -1.06134,1.08355 -8.26931,9.74567 -16.01771,19.24915 l -14.08801,17.27905 v 13.9276 c 0,13.35355 0.0995,13.83762 2.41228,11.74452 1.32674,-1.20069 4.56377,-6.24369 7.19337,-11.20665 z"
     id="path4528"
     inkscape:connector-curvature="0" />
</svg>
