<?xml version="1.0" encoding="UTF-8" standalone="no"?>
<!-- Created with Inkscape (http://www.inkscape.org/) -->

<svg
   xmlns:dc="http://purl.org/dc/elements/1.1/"
   xmlns:cc="http://creativecommons.org/ns#"
   xmlns:rdf="http://www.w3.org/1999/02/22-rdf-syntax-ns#"
   xmlns:svg="http://www.w3.org/2000/svg"
   xmlns="http://www.w3.org/2000/svg"
   xmlns:sodipodi="http://sodipodi.sourceforge.net/DTD/sodipodi-0.dtd"
   xmlns:inkscape="http://www.inkscape.org/namespaces/inkscape"
   version="1.1"
   id="svg815"
   width="760"
   height="1228"
   viewBox="0 0 760 1228"
   sodipodi:docname="IMG_7137inkscapeoutline.svg"
   inkscape:version="0.92.4 (5da689c313, 2019-01-14)">
  <metadata
     id="metadata821">
    <rdf:RDF>
      <cc:Work
         rdf:about="">
        <dc:format>image/svg+xml</dc:format>
        <dc:type
           rdf:resource="http://purl.org/dc/dcmitype/StillImage" />
        <dc:title></dc:title>
      </cc:Work>
    </rdf:RDF>
  </metadata>
  <defs
     id="defs819" />
  <sodipodi:namedview
     pagecolor="#ffffff"
     bordercolor="#666666"
     borderopacity="1"
     objecttolerance="10"
     gridtolerance="10"
     guidetolerance="10"
     inkscape:pageopacity="0"
     inkscape:pageshadow="2"
     inkscape:window-width="1680"
     inkscape:window-height="997"
     id="namedview817"
     showgrid="false"
     inkscape:zoom="0.6742671"
     inkscape:cx="380"
     inkscape:cy="614"
     inkscape:window-x="1272"
     inkscape:window-y="-8"
     inkscape:window-maximized="1"
     inkscape:current-layer="svg815" />
  <path
     style="fill:none;stroke-width:1.33333337;stroke:#000000;stroke-opacity:1"
     d="M 2.9661879,614 V -2.4637744e-8 H 351.96189 700.95769 L 694.29529,4.6892773 c -26.6371,18.7482717 -46.5504,33.2918427 -56.2077,41.0508777 -10.4014,8.356936 -31.1214,21.734064 -31.1214,20.09241 0,-0.387108 -1.4404,0.992203 -3.2008,3.065135 -1.7604,2.072932 -5.5104,4.956651 -8.3333,6.408265 -12.0377,6.190084 -40.3994,31.627185 -44.3403,39.767825 -2.2759,4.70155 -2.7923,8.28878 -2.7923,19.39973 0,24.03381 -2.0599,37.31351 -10.6812,68.85981 -0.8017,2.93334 -3.1961,9.83334 -5.3211,15.33334 -2.1249,5.5 -4.9017,13.53236 -6.1707,17.84969 -1.2689,4.31733 -3.6098,9.41733 -5.2019,11.33333 -1.5922,1.916 -2.6946,4.08364 -2.4499,4.81698 0.8375,2.50966 -5.5393,11.99402 -8.3364,12.39878 -3.9643,0.57367 -9.8388,-7.54449 -9.8388,-13.59656 0,-2.58997 -0.8516,-7.28 -1.8925,-10.42229 -1.0409,-3.14229 -2.5215,-11.11327 -3.2903,-17.71327 -0.7687,-6.6 -2.2645,-18.8971 -3.3238,-27.3269 -1.3186,-10.49251 -1.4886,-15.59734 -0.539,-16.18427 0.763,-0.47155 0.9988,-1.48593 0.524,-2.25421 -1.2709,-2.05623 -3.523,-19.21671 -4.2562,-32.43062 -0.4761,-8.58086 -0.1803,-11.99069 1.1567,-13.33333 0.988,-0.9922 3.3973,-5.30554 5.3541,-9.58519 1.9567,-4.27966 5.374,-10.07448 7.5939,-12.87739 2.22,-2.8029 5.4215,-8.78084 7.1145,-13.284301 1.693,-4.50346 4.0049,-9.270495 5.1376,-10.593406 1.1327,-1.32291 2.4755,-5.179452 2.984,-8.570092 0.5084,-3.390638 1.4898,-6.514193 2.1807,-6.941233 0.691,-0.427039 1.2563,-1.670224 1.2563,-2.762635 0,-1.09241 3.0604,-8.107 6.8008,-15.587977 8.0092,-16.018784 13.1992,-30.340565 13.1992,-36.423289 0,-7.0409457 -1.1206,-6.9895237 -13.5476,0.621642 -2.6845,1.644187 -5.183,3.776666 -5.5522,4.738843 -0.7275,1.895747 -34.7067,32.583857 -45.5668,41.153345 -3.6667,2.893291 -16.8928,17.179026 -29.3913,31.746082 -28.6042,33.338271 -32.2623,40.172651 -33.33,62.270771 -0.55,11.38298 -3.0621,22.42967 -13.2558,58.29083 -3.7648,13.24455 -5.7804,21.53581 -7.9414,32.66667 -2.8233,14.54216 -8.1257,30.85758 -12.7831,39.33333 -2.0148,3.66667 -6.7997,12.66667 -10.6329,20 -8.0719,15.44223 -11.304,19.28563 -19.8118,23.559 -3.4029,1.70921 -7.2371,3.95065 -8.5204,4.98099 -1.2833,1.03032 -2.3333,1.38733 -2.3333,0.79334 0,-0.59398 -1.05,-0.13306 -2.3334,1.02442 -2.1609,1.9489 -13.1284,6.04729 -41.6666,15.5703 -49.0199,16.35755 -80.9856,47.01075 -102.6139,98.40036 -4.5535,10.81938 -9.202,21.77159 -10.33,24.33826 -2.3279,5.2967 -5.7228,20.32601 -5.7228,25.33458 0,1.83456 2.4,10.38634 5.3333,19.00394 2.9334,8.61758 5.3334,17.13698 5.3334,18.932 0,4.13736 -3.5261,6.26852 -7.2463,4.37973 -1.5146,-0.76893 -3.6537,-1.83895 -4.7537,-2.37781 -1.2675,-0.62091 -1.8761,-2.49843 -1.6616,-5.12611 0.1861,-2.28048 -0.2639,-4.14633 -1,-4.14633 -0.7362,0 -1.3384,0.88117 -1.3384,1.95816 0,1.25542 -0.7735,1.66136 -2.1551,1.13114 -1.8194,-0.69814 -1.9233,-0.39368 -0.6667,1.9542 2.0662,3.86079 1.8667,5.31146 -0.8449,6.14418 -1.2833,0.39409 -0.5775,0.50106 1.5685,0.2377 2.146,-0.26336 4.723,0.34234 5.7267,1.34599 1.0036,1.00365 4.1978,2.4638 7.0981,3.24479 l 5.2734,1.41996 v 7.74856 c 0,6.41742 -0.6537,8.64186 -3.8048,12.9486 -2.0927,2.86002 -5.1646,6.40005 -6.8264,7.86672 -6.9907,6.16954 -15.5155,23.00454 -24.7944,48.9646 -6.1226,17.12954 -6.0471,16.4116 -2.112,20.0963 3.9976,3.74314 13.744,8.9391 16.7678,8.9391 1.1017,0 5.384,1.26497 9.5162,2.81104 6.4586,2.41646 7.8652,3.58617 10.0208,8.33333 1.6774,3.6942 2.5172,8.61988 2.5368,14.87945 0.024,7.84575 0.588,10.17936 3.4883,14.44751 1.9024,2.79969 3.1428,6.08897 2.7563,7.30951 -5.6452,17.82988 -5.2805,20.67202 3.2693,25.47729 8.7014,4.89047 11.5306,14.18201 7.0463,23.14141 -1.1746,2.34692 -5.5246,7.62864 -9.6666,11.73716 -4.1421,4.10852 -8.6124,8.80206 -9.9341,10.43007 -5.7926,7.13505 -6.579,17.25373 -1.8835,24.23605 9.2247,13.71746 28.7172,13.14126 70.7714,-2.09202 29.0842,-10.53516 37.3695,-12.90696 47.7285,-13.66316 l 10.2132,-0.74556 2.5772,5.18229 c 3.2815,6.59864 5.0998,14.13465 7.0411,29.18229 1.4484,11.22671 1.3608,12.47235 -1.3589,19.33 -1.5989,4.03151 -3.3802,7.93151 -3.9584,8.66667 -2.2096,2.80935 -10.5247,29.86751 -12.7028,41.33667 -4.2335,22.29093 -3.9471,70.38433 0.5676,95.33333 0.7299,4.03333 1.8807,10.63333 2.5574,14.66665 2.5412,15.14755 5.7651,27.42005 8.2659,31.46635 1.4214,2.3 2.5844,4.9596 2.5844,5.9103 0,0.9507 2.1663,6.2799 4.814,11.8426 7.8912,16.5792 7.9673,14.6703 -0.9866,24.7572 -4.3871,4.9421 -7.6502,9.3119 -7.2514,9.7107 0.6214,0.6213 8.4416,-7.488 13.7407,-14.2487 1.4684,-1.8734 1.9458,-1.7382 4.3373,1.2282 1.478,1.8334 3.0213,4.8334 3.4294,6.6667 0.4082,1.8333 1.3185,4.2333 2.0229,5.3333 3.4551,5.3957 5.2387,11.2491 5.9087,19.3921 0.4047,4.9171 1.2855,9.9675 1.9574,11.223 1.5314,2.8614 5.8616,24.873 8.0103,40.7183 1.8152,13.3862 4.9194,26.0107 6.3879,25.9796 3.4005,-0.072 4.3781,-3.0676 5.0266,-15.4022 2.2252,-42.3266 5.77,-56.2842 19.5952,-77.1575 3.8542,-5.8191 8.4274,-12.7191 10.1627,-15.3334 4.3863,-6.6081 13.0048,-15.4175 20.5116,-20.9659 4.2351,-3.1303 6.3333,-5.6579 6.3333,-7.6297 0,-2.8264 0.9925,-4.4839 7.6667,-12.8031 1.65,-2.0567 3,-4.1282 3,-4.6032 0,-0.4751 0.591,-1.5885 1.3132,-2.4742 5.8069,-7.1209 8.0201,-10.1176 8.0201,-10.8592 0,-0.4751 0.6104,-1.5885 1.3565,-2.4742 3.1705,-3.7639 15.9798,-22.40343 16.0111,-23.29865 0.019,-0.5381 3.0894,-3.97494 6.8235,-7.63742 3.7341,-3.66247 7.3444,-7.86247 8.023,-9.33334 2.0405,-4.42294 4.2383,-7.86326 8.5644,-13.40605 2.2615,-2.89753 4.4988,-6.16824 4.9718,-7.26824 0.4729,-1.1 2.3662,-4.4 4.2073,-7.33333 1.8411,-2.93334 3.9534,-6.83334 4.6941,-8.66667 0.7407,-1.83333 1.9514,-4.23333 2.6905,-5.33333 0.7391,-1.1 2.0342,-3.5 2.878,-5.33334 0.8438,-1.83333 3.2395,-6.98074 5.3237,-11.4387 2.0842,-4.45795 3.7895,-8.7689 3.7895,-9.57987 0,-0.81097 0.6997,-3.16356 1.5549,-5.22796 2.2636,-5.46397 2.0365,-4.57769 6.9397,-27.0868 5.7083,-26.20484 6.8332,-37.69551 6.7881,-69.33333 -0.047,-32.6438 -1.3776,-42.94447 -9.0449,-70 -4.1034,-14.47955 -3.9136,-14.34866 -15.1912,-10.47566 -3.509,1.20506 -7.9455,2.38351 -9.859,2.61879 -1.9135,0.23527 -6.1135,1.308 -9.3333,2.38385 -7.3983,2.47196 -17.5745,4.51467 -31.1877,6.26043 -5.8666,0.75235 -12.5092,1.93296 -14.7613,2.62357 -2.2521,0.69063 -7.2966,1.25568 -11.2102,1.25568 -6.3168,0 -7.9302,-0.62856 -14.3743,-5.60012 -3.9923,-3.08006 -8.6977,-7.48669 -10.4565,-9.79252 -4.3703,-5.72974 -4.3236,-14.3656 0.1196,-22.13793 4.8857,-8.54629 4.6393,-17.81296 -0.6506,-24.46943 -4.5349,-5.70644 -4.4158,-5.23446 -2.7695,-10.97456 0.8184,-2.85374 0.7247,-5.63002 -0.2799,-8.29142 -1.1155,-2.95552 -1.1217,-5.14223 -0.024,-8.36758 0.8177,-2.40154 1.8683,-6.60306 2.3347,-9.33673 0.766,-4.48943 0.3267,-5.53583 -4.5402,-10.81577 -2.9635,-3.21502 -5.3882,-6.33971 -5.3882,-6.94378 0,-0.60405 -1.1514,-2.33696 -2.5587,-3.85089 -1.4072,-1.51393 -2.9635,-4.94637 -3.4582,-7.62765 -1.056,-5.72223 -1.4138,-5.3228 16.6836,-18.62388 13.023,-9.57159 21.8096,-18.1821 24.0425,-23.56074 1.0053,-2.42154 0.3126,-5.07753 -3.3211,-12.7349 -4.5558,-9.60043 -8.1335,-21.90444 -6.7667,-23.27124 0.3916,-0.39159 0.7281,0.13804 0.7478,1.17692 0.045,2.39692 7.4921,11.47205 8.5474,10.41673 0.4337,-0.43365 -0.1153,-7.62981 -1.2199,-15.99148 -3.1326,-23.71225 -2.7544,-31.23848 1.97,-39.20303 2.175,-3.66666 3.9648,-7.64457 3.9773,-8.8398 0.012,-1.19522 -3.2593,-4.6511 -7.2707,-7.67972 -9.0195,-6.80974 -10.3697,-9.20577 -11.4337,-20.28936 -0.6156,-6.41201 -1.7591,-10.03998 -4.2028,-13.33333 -6.3013,-8.49244 -7.7365,-13.01563 -7.741,-24.39597 0,-11.77818 4.1293,-29.05852 7.9296,-33.14726 2.6371,-2.83717 8.3063,-6.19058 20.7413,-12.26886 7.9877,-3.90443 10.8712,-4.60003 20,-4.8248 5.8667,-0.14446 11.5667,0.0463 12.6667,0.4237 1.1,0.37748 5.3,1.42626 9.3333,2.3306 6.7357,1.51027 11.9768,3.6919 35.6412,14.8357 4.5693,2.15173 10.1193,4.27454 12.3333,4.71734 l 4.0255,0.8051 v -17.28559 c 0,-9.50708 0.4292,-29.23208 0.9537,-43.83333 0.7987,-22.23492 1.109,-25.0315 1.9099,-17.21442 0.9698,9.46494 3.0913,18.36279 5.2454,22 0.6515,1.1 2.0605,3.94426 3.1311,6.32058 2.0076,4.4563 4.4321,7.15562 13.2806,14.78629 4.458,3.84441 4.9619,4.8284 3.7555,7.33333 -4.0307,8.36903 -3.1272,18.22647 1.6706,18.22647 3.0071,0 9.9557,-5.68011 12.4914,-10.21105 0.749,-1.33838 1.5869,-2.1384 1.8621,-1.77784 8.2285,10.78268 19.2955,20.39353 28.3664,24.63426 3.6666,1.7142 11.1666,4.1151 16.6666,5.33531 5.5,1.22021 11.0744,2.79407 12.3876,3.49745 1.3132,0.70338 2.9894,0.9069 3.7251,0.45226 0.7356,-0.45464 2.0612,-0.2328 2.9457,0.493 0.8846,0.72578 5.2083,1.7578 9.6083,2.29334 4.4,0.53556 9.2501,1.44055 10.778,2.01108 3.9118,1.46075 5.0838,0.20772 6.9164,-7.39448 2.551,-10.58241 4.1441,-23.41534 8.2758,-66.66666 1.5132,-15.84076 -0.2428,-89.05543 -2.498,-104.14894 -3.2322,-21.63262 -11.0963,-52.20389 -16.2007,-62.97912 -6.8411,-14.44138 -6.9252,-19.70177 -0.5093,-31.85279 2.6193,-4.96054 6.4348,-10.81915 8.479,-13.01915 8.451,-9.095151 25.8055,-36.112167 35.972,-56.000003 5.7018,-11.153884 14.195,-25.24462 23.7868,-39.46334 3.1167,-4.6201217 5.6667,-9.4809207 5.6667,-10.8017747 0,-2.21900242 1.7229,-2.40155232463805 22.6666,-2.40155232463805 h 22.6667 V 614 1228 h -380 H 2.9657879 Z M 609.61239,57.987396 c 0.02,-2.634936 -4.8774,-6.867269 -6.3002,-5.444499 -0.4002,0.400218 0.2582,1.105983 1.4632,1.56837 1.4713,0.564624 2.1975,2.435816 2.2112,5.698052 0.015,3.626986 0.3478,4.35075 1.3129,2.857348 0.7109,-1.1 1.3017,-3.205672 1.3129,-4.679271 z"
     id="path825"
     inkscape:connector-curvature="0" />
</svg>
